<?xml version="1.0" standalone="no"?>
<!DOCTYPE svg PUBLIC "-//W3C//DTD SVG 20010904//EN"
 "http://www.w3.org/TR/2001/REC-SVG-20010904/DTD/svg10.dtd">
<svg version="1.0" xmlns="http://www.w3.org/2000/svg"
 width="500.000000pt" height="500.000000pt" viewBox="0 0 500.000000 500.000000"
 preserveAspectRatio="xMidYMid meet">

<g transform="translate(0.000000,500.000000) scale(0.100000,-0.100000)"
fill="#000000" stroke="none">
<path d="M2054 4955 c-799 -151 -1449 -643 -1799 -1360 -292 -599 -333 -1267
-117 -1905 255 -752 889 -1360 1647 -1580 260 -76 308 -82 666 -87 l326 -5 29
25 29 25 5 183 5 182 105 23 c231 52 501 164 683 283 43 28 81 51 84 51 4 0
61 -54 128 -119 130 -129 159 -148 209 -131 30 10 363 335 400 390 36 54 26
74 -114 215 -71 72 -130 134 -130 138 0 3 25 45 56 93 140 213 241 472 300
762 4 22 6 22 180 22 191 0 220 7 242 55 15 32 17 531 2 569 -20 53 -48 61
-242 64 -173 4 -178 4 -183 25 -28 133 -60 249 -89 332 -47 129 -150 339 -217
438 l-52 78 120 122 c67 67 126 133 133 146 27 52 10 77 -195 281 l-195 195
-45 0 c-44 0 -47 -2 -173 -128 l-128 -128 -90 56 c-226 143 -477 243 -736 295
l-58 11 0 178 0 178 -26 27 -27 26 -306 -1 c-275 -1 -318 -3 -427 -24z m596
-336 l0 -171 28 -28 c22 -22 43 -30 102 -39 121 -20 278 -60 385 -101 172 -64
280 -123 499 -273 74 -51 91 -44 235 98 l127 124 102 -102 102 -102 -111 -110
c-151 -150 -163 -177 -112 -251 111 -163 153 -233 204 -338 85 -179 136 -344
169 -546 10 -58 18 -80 40 -102 l28 -28 176 0 176 0 0 -145 0 -145 -142 0
c-79 0 -160 -3 -180 -6 -52 -9 -84 -44 -93 -102 -43 -301 -143 -560 -314 -815
-124 -184 -126 -165 36 -329 l127 -128 -104 -105 -104 -105 -127 125 c-118
117 -128 125 -165 125 -32 0 -53 -10 -109 -51 -161 -117 -329 -203 -525 -269
-109 -37 -292 -80 -340 -80 -35 0 -86 -29 -99 -56 -7 -15 -11 -88 -11 -190 l0
-165 -147 3 -148 3 -3 802 -2 802 42 11 c278 69 478 269 533 531 75 358 -150
716 -507 805 l-68 16 0 804 0 804 150 0 150 0 0 -171z m-490 57 l0 -105 -57
-11 c-333 -65 -652 -213 -913 -423 -538 -432 -833 -1103 -781 -1777 59 -760
489 -1400 1168 -1739 140 -70 323 -134 473 -165 l105 -22 3 -102 c3 -120 16
-114 -150 -78 -230 49 -521 167 -726 294 -450 279 -791 713 -961 1217 -85 254
-121 477 -121 754 0 587 228 1148 639 1574 340 351 726 563 1221 668 47 9 88
18 93 18 4 1 7 -46 7 -103z m0 -962 c0 -450 3 -662 11 -676 14 -25 68 -48 115
-48 136 0 313 -107 388 -235 65 -110 86 -270 52 -387 -54 -187 -216 -321 -425
-352 -151 -22 -135 59 -141 -720 l-5 -664 -130 33 c-245 62 -454 162 -662 316
-96 71 -266 228 -284 262 -8 14 -1 28 35 68 38 42 46 58 46 90 0 58 -36 94
-94 94 -39 0 -50 -5 -86 -40 -34 -33 -42 -37 -51 -25 -41 62 -126 213 -155
276 -74 164 -143 405 -159 559 -3 33 -8 76 -11 96 l-5 36 62 7 c75 7 106 25
117 69 20 75 -29 127 -119 127 -68 0 -65 -13 -44 142 29 218 89 417 185 608
46 92 150 258 194 311 l22 26 43 -39 c32 -28 52 -38 78 -38 43 0 77 23 93 60
17 41 5 78 -41 126 l-39 40 67 65 c223 215 561 391 888 462 60 13 55 72 55
-649z"/>
<path d="M2135 2767 c-53 -25 -129 -100 -145 -142 l-10 -25 -460 0 c-506 0
-505 0 -530 -60 -17 -41 -3 -87 33 -114 28 -20 41 -21 483 -26 l454 -5 -281
-280 c-154 -154 -287 -293 -295 -308 -32 -60 21 -137 94 -137 34 0 53 17 329
292 l292 292 43 -20 c66 -30 178 -26 244 8 181 94 217 328 72 469 -57 55 -101
73 -193 77 -68 2 -88 -1 -130 -21z m193 -202 c53 -62 11 -155 -72 -155 -44 1
-66 13 -84 47 -26 48 -6 113 42 134 35 14 89 2 114 -26z"/>
</g>
</svg>
