<?xml version="1.0" standalone="no"?>
<!DOCTYPE svg PUBLIC "-//W3C//DTD SVG 20010904//EN"
 "http://www.w3.org/TR/2001/REC-SVG-20010904/DTD/svg10.dtd">
<svg version="1.0" xmlns="http://www.w3.org/2000/svg"
 width="1036.000000pt" height="1036.000000pt" viewBox="0 0 1036.000000 1036.000000"
 preserveAspectRatio="xMidYMid meet">

<g transform="translate(0.000000,1036.000000) scale(0.100000,-0.100000)"
fill="#000000" stroke="none">
<path d="M1773 9760 c-16 -7 -23 -18 -23 -38 0 -35 16 -52 50 -52 31 0 50 17
50 45 0 41 -36 61 -77 45z"/>
<path d="M500 9505 l0 -235 50 0 50 0 0 100 0 100 100 0 100 0 0 -100 0 -100
50 0 50 0 0 235 0 235 -50 0 -49 0 -3 -92 -3 -93 -97 -3 -98 -3 0 96 0 95 -50
0 -50 0 0 -235z"/>
<path d="M1350 9505 l0 -235 45 0 c42 0 45 2 45 27 l0 27 28 -27 c37 -36 115
-38 157 -5 93 73 83 270 -16 320 -56 29 -121 18 -151 -26 -4 -6 -8 26 -8 72
l0 82 -50 0 -50 0 0 -235z m209 26 c37 -37 39 -124 4 -163 -20 -22 -76 -24
-93 -3 -6 8 -16 31 -20 50 -21 93 54 171 109 116z"/>
<path d="M1938 9668 c-2 -36 -7 -44 -25 -46 -19 -3 -23 -10 -23 -38 0 -30 3
-34 25 -34 l25 0 0 -105 c0 -57 5 -115 11 -128 15 -32 49 -47 109 -47 41 0 50
3 50 18 0 41 -12 61 -39 64 -26 3 -26 3 -29 101 l-3 97 31 0 c28 0 30 3 30 35
0 32 -2 35 -30 35 -29 0 -30 2 -30 45 l0 45 -49 0 -50 0 -3 -42z"/>
<path d="M1053 9619 c-29 -9 -83 -60 -83 -80 0 -8 18 -14 65 -21 11 -2 28 5
37 14 34 34 110 13 95 -26 -6 -14 -22 -19 -105 -31 -23 -4 -56 -18 -72 -32
-26 -21 -30 -32 -30 -73 0 -37 5 -53 25 -72 42 -43 130 -43 176 -2 18 16 19
16 19 -4 0 -19 6 -22 45 -22 l45 0 0 139 c0 135 -1 140 -26 170 -38 46 -115
62 -191 40z m117 -216 c0 -37 -27 -63 -65 -63 -73 0 -66 62 8 78 23 6 45 10
50 11 4 1 7 -11 7 -26z"/>
<path d="M2223 9620 c-43 -14 -73 -54 -73 -99 0 -65 28 -86 158 -120 23 -7 42
-17 42 -24 0 -41 -77 -51 -107 -14 -15 19 -24 22 -56 16 -49 -8 -54 -15 -37
-47 47 -83 228 -90 284 -10 22 32 20 90 -4 116 -19 20 -104 52 -140 52 -19 0
-40 19 -40 37 0 7 11 19 25 25 22 10 30 8 56 -11 24 -18 39 -22 66 -18 20 4
38 9 41 12 10 9 -17 54 -42 70 -30 20 -129 28 -173 15z"/>
<path d="M1750 9445 l0 -175 50 0 50 0 0 175 0 175 -50 0 -50 0 0 -175z"/>
<path d="M5433 8240 c-30 -12 -43 -41 -43 -98 0 -62 28 -102 70 -102 43 0 70
40 70 105 0 76 -42 117 -97 95z m56 -34 c14 -16 17 -81 6 -114 -7 -24 -43 -30
-63 -10 -7 7 -12 35 -12 63 0 28 5 56 12 63 16 16 43 15 57 -2z"/>
<path d="M5596 8229 c-58 -45 -8 -142 56 -108 26 14 34 5 20 -26 -12 -26 -54
-35 -67 -15 -3 6 -13 10 -21 10 -11 0 -12 -4 -4 -19 24 -46 101 -32 119 21 23
65 7 127 -36 147 -32 15 -36 14 -67 -10z m76 -34 c14 -32 -5 -57 -41 -53 -27
3 -39 33 -27 64 9 24 55 17 68 -11z"/>
<path d="M6030 8237 c-28 -14 -38 -51 -19 -73 9 -11 8 -18 -5 -32 -37 -42 -9
-87 54 -87 64 0 91 45 53 88 -13 15 -15 21 -5 24 6 3 12 17 12 33 0 44 -46 69
-90 47z m60 -32 c10 -12 10 -18 0 -30 -27 -32 -71 -8 -56 30 3 8 14 15 24 15
11 0 25 -7 32 -15z m8 -102 c4 -29 -30 -48 -58 -33 -20 11 -27 40 -13 54 4 4
21 6 38 4 22 -2 31 -9 33 -25z"/>
<path d="M8093 8240 c-31 -12 -45 -45 -45 -100 1 -56 17 -88 50 -97 53 -13 92
30 92 103 0 37 -24 94 -39 94 -5 0 -15 2 -23 4 -7 3 -23 1 -35 -4z m57 -39 c5
-11 10 -40 10 -65 0 -34 -5 -48 -21 -60 -29 -20 -46 -11 -59 30 -12 36 -7 79
12 101 16 19 46 16 58 -6z"/>
<path d="M8261 8237 c-28 -14 -42 -53 -30 -85 11 -29 53 -46 81 -31 27 14 34
4 18 -26 -15 -27 -39 -32 -70 -13 -29 18 -39 -1 -11 -23 45 -37 94 -13 112 53
16 61 -1 113 -43 127 -17 6 -31 11 -32 11 -1 0 -12 -6 -25 -13z m68 -39 c12
-31 -4 -58 -34 -58 -31 0 -50 32 -35 60 15 28 58 26 69 -2z"/>
<path d="M500 8140 c0 -82 3 -100 15 -100 12 0 15 16 15 83 1 92 -3 93 65 -18
25 -40 46 -65 57 -65 16 0 18 11 18 100 0 82 -3 100 -15 100 -12 0 -15 -15
-15 -77 l0 -78 -50 78 c-35 54 -56 77 -70 77 -19 0 -20 -6 -20 -100z"/>
<path d="M5888 8226 c-25 -19 -24 -40 1 -26 11 5 22 10 25 10 3 0 6 -38 6 -85
0 -69 3 -85 15 -85 12 0 15 18 15 100 0 97 -1 100 -22 100 -13 0 -31 -7 -40
-14z"/>
<path d="M8548 8229 c-26 -15 -24 -43 1 -29 11 5 22 10 25 10 3 0 6 -38 6 -85
0 -50 4 -85 10 -85 6 0 10 40 10 100 0 89 -2 100 -17 100 -10 0 -26 -5 -35
-11z"/>
<path d="M8640 8230 c0 -5 23 -10 50 -10 28 0 50 -2 50 -5 0 -3 -18 -41 -40
-85 -45 -89 -45 -90 -27 -90 10 0 107 173 107 193 0 4 -31 7 -70 7 -40 0 -70
-4 -70 -10z"/>
<path d="M721 8176 c-15 -18 7 -27 30 -13 20 12 52 2 47 -15 -3 -7 -18 -15
-35 -19 -42 -8 -53 -17 -53 -43 0 -28 18 -46 45 -46 12 0 26 5 33 12 9 9 12 9
12 0 0 -7 7 -12 15 -12 12 0 15 14 15 63 0 36 -5 68 -12 75 -17 17 -83 15 -97
-2z m77 -82 c-5 -27 -34 -40 -52 -25 -21 18 -3 41 31 41 17 0 24 -5 21 -16z"/>
<path d="M870 8114 c0 -58 3 -74 15 -74 10 0 15 16 17 63 3 59 4 62 28 62 24
0 25 -3 28 -62 2 -46 7 -63 17 -63 10 0 15 17 17 63 3 59 4 62 28 62 24 0 25
-3 28 -62 2 -47 7 -63 17 -63 11 0 15 13 15 49 0 74 -13 101 -49 101 -16 0
-33 -5 -36 -10 -5 -8 -11 -8 -19 -1 -7 6 -33 10 -59 9 l-47 -1 0 -73z"/>
<path d="M1137 8172 c-26 -28 -22 -97 5 -116 30 -21 61 -20 89 4 27 22 13 26
-25 9 -20 -9 -29 -9 -41 1 -30 25 -18 40 35 40 55 0 64 15 34 58 -19 28 -74
30 -97 4z m73 -6 c0 -2 3 -11 6 -20 5 -13 -1 -16 -30 -16 -34 0 -47 15 -29 33
7 8 53 10 53 3z"/>
<path d="M5750 8140 c0 -5 20 -10 45 -10 25 0 45 5 45 10 0 6 -20 10 -45 10
-25 0 -45 -4 -45 -10z"/>
<path d="M8410 8140 c0 -5 18 -10 40 -10 22 0 40 5 40 10 0 6 -18 10 -40 10
-22 0 -40 -4 -40 -10z"/>
<path d="M545 7149 c-40 -24 -58 -81 -44 -135 26 -94 169 -82 169 14 0 31 -2
32 -40 32 -29 0 -40 -4 -40 -15 0 -9 9 -15 25 -15 29 0 32 -12 9 -34 -39 -39
-94 -3 -94 61 0 37 29 73 58 73 11 0 27 -9 37 -20 19 -20 45 -27 45 -11 0 40
-85 73 -125 50z"/>
<path d="M1890 7055 c0 -87 3 -105 15 -105 11 0 15 13 15 54 0 56 17 83 45 72
11 -4 15 -21 15 -66 0 -53 2 -60 20 -60 17 0 20 7 20 49 0 88 -31 127 -80 101
-18 -10 -20 -8 -20 25 0 24 -4 35 -15 35 -12 0 -15 -18 -15 -105z"/>
<path d="M2280 7055 c0 -87 3 -105 15 -105 12 0 15 18 15 105 0 87 -3 105 -15
105 -12 0 -15 -18 -15 -105z"/>
<path d="M880 7129 c0 -7 -8 -18 -17 -25 -17 -12 -17 -14 -1 -26 12 -9 18 -30
20 -68 3 -52 5 -55 31 -58 19 -2 27 1 27 12 0 9 -7 16 -15 16 -11 0 -15 12
-15 50 0 38 4 50 15 50 8 0 15 7 15 15 0 8 -7 15 -15 15 -8 0 -15 7 -15 15 0
8 -7 15 -15 15 -8 0 -15 -5 -15 -11z"/>
<path d="M742 7103 c-16 -6 -42 -56 -42 -81 0 -35 38 -72 75 -72 39 0 75 28
54 41 -8 4 -19 3 -26 -2 -18 -15 -57 -7 -61 14 -3 14 4 17 47 17 46 0 51 2 51
23 0 28 -9 41 -37 56 -23 12 -39 13 -61 4z m56 -35 c20 -20 14 -28 -23 -28
-19 0 -35 4 -35 8 0 12 22 32 35 32 6 0 16 -5 23 -12z"/>
<path d="M1065 7088 c-33 -28 -37 -88 -9 -119 21 -23 72 -25 100 -4 16 12 17
16 4 24 -9 6 -19 6 -27 0 -18 -15 -57 -7 -61 14 -3 14 5 17 52 17 l55 0 -10
32 c-11 38 -17 45 -50 53 -19 5 -33 0 -54 -17z m63 -20 c20 -20 14 -28 -23
-28 -19 0 -35 4 -35 8 0 12 22 32 35 32 6 0 16 -5 23 -12z"/>
<path d="M1210 7030 c0 -64 3 -80 15 -80 11 0 15 13 15 54 0 56 17 83 45 72
11 -4 15 -21 15 -66 0 -53 2 -60 20 -60 17 0 20 7 20 49 0 87 -31 127 -79 102
-13 -7 -22 -8 -26 -1 -16 27 -25 3 -25 -70z"/>
<path d="M1395 7085 c-51 -50 -18 -135 52 -135 41 0 63 27 63 78 0 32 -6 45
-26 61 -35 27 -59 26 -89 -4z m73 -17 c7 -7 12 -24 12 -38 0 -51 -52 -69 -72
-25 -9 19 -8 29 6 50 18 27 35 32 54 13z"/>
<path d="M1547 7104 c-12 -12 -7 -97 6 -124 11 -22 20 -25 65 -26 l52 -2 0 80
c0 59 -3 79 -12 76 -8 -3 -15 -29 -18 -64 -5 -55 -7 -59 -30 -59 -23 0 -25 4
-30 59 -5 55 -16 76 -33 60z"/>
<path d="M1730 7090 c-13 -13 -20 -33 -20 -60 0 -27 7 -47 20 -60 23 -23 29
-24 64 -10 20 7 26 6 26 -3 0 -32 -53 -50 -77 -26 -8 8 -13 7 -18 -2 -11 -17
22 -39 57 -39 53 0 68 29 68 130 0 73 -3 90 -15 90 -8 0 -15 -5 -15 -10 0 -7
-6 -7 -19 0 -29 15 -49 12 -71 -10z m66 -18 c32 -22 20 -92 -15 -92 -37 0 -53
56 -25 84 17 18 24 19 40 8z"/>
<path d="M2153 7098 c-25 -12 -31 -49 -10 -66 6 -6 24 -13 40 -17 34 -9 36
-35 3 -35 -14 0 -27 4 -31 10 -3 5 -12 7 -21 3 -13 -5 -13 -8 2 -24 23 -25 76
-25 98 0 27 30 12 59 -35 71 -23 7 -39 16 -36 23 5 15 47 22 47 8 0 -6 7 -11
15 -11 25 0 17 30 -11 40 -30 12 -33 12 -61 -2z"/>
<path d="M2375 7088 c-33 -28 -37 -88 -9 -119 21 -23 72 -25 100 -4 16 12 17
16 4 24 -9 6 -19 6 -27 0 -18 -15 -57 -7 -61 14 -3 14 5 17 52 17 l55 0 -10
32 c-11 38 -17 45 -50 53 -19 5 -33 0 -54 -17z m63 -20 c20 -20 14 -28 -23
-28 -19 0 -35 4 -35 8 0 12 22 32 35 32 6 0 16 -5 23 -12z"/>
<path d="M2535 7085 c-33 -32 -34 -83 -2 -113 29 -28 78 -29 102 -2 18 20 18
20 -30 18 -40 -3 -50 0 -53 15 -3 14 4 17 47 17 45 0 51 3 51 20 0 27 -43 70
-70 70 -12 0 -32 -11 -45 -25z m73 -27 c3 -14 -3 -18 -27 -18 -29 0 -41 17
-24 34 13 13 48 1 51 -16z"/>
<path d="M2680 7000 c0 -91 3 -110 15 -110 11 0 15 11 15 42 0 33 3 39 12 30
7 -7 24 -12 39 -12 58 0 80 90 34 135 -27 28 -37 30 -66 15 -13 -7 -19 -7 -19
0 0 5 -7 10 -15 10 -12 0 -15 -19 -15 -110z m94 64 c19 -18 20 -38 6 -65 -20
-36 -70 -17 -70 27 0 22 24 54 40 54 5 0 16 -7 24 -16z"/>
<path d="M533 5928 c-26 -12 -37 -39 -28 -67 3 -10 28 -28 56 -40 37 -15 50
-25 47 -38 -4 -24 -66 -31 -74 -9 -3 9 -15 16 -25 16 -13 0 -17 -5 -12 -17 11
-29 35 -42 75 -43 39 0 78 27 78 53 0 25 -30 54 -68 65 -44 13 -58 34 -37 52
16 13 65 5 65 -10 0 -6 7 -10 15 -10 19 0 20 24 2 39 -21 17 -69 22 -94 9z"/>
<path d="M1300 5835 c0 -87 3 -105 15 -105 11 0 15 13 15 54 0 56 17 83 45 72
11 -4 15 -21 15 -66 0 -53 2 -60 20 -60 17 0 20 7 20 49 0 88 -31 127 -80 101
-18 -10 -20 -8 -20 25 0 24 -4 35 -15 35 -12 0 -15 -18 -15 -105z"/>
<path d="M2150 5835 c0 -87 3 -105 15 -105 12 0 15 18 15 105 0 87 -3 105 -15
105 -12 0 -15 -18 -15 -105z"/>
<path d="M2490 5835 c0 -87 3 -105 15 -105 12 0 15 18 15 105 0 87 -3 105 -15
105 -12 0 -15 -18 -15 -105z"/>
<path d="M672 5892 c-8 -17 -9 -28 -2 -30 5 -2 10 -24 10 -48 0 -25 5 -54 10
-65 13 -23 60 -26 60 -4 0 8 -7 15 -15 15 -11 0 -15 12 -15 50 0 38 4 50 15
50 8 0 15 5 15 10 0 6 -7 13 -15 16 -8 4 -15 12 -15 20 0 25 -35 15 -48 -14z"/>
<path d="M1050 5909 c0 -7 -8 -18 -17 -25 -17 -12 -17 -14 -1 -26 12 -9 18
-30 20 -68 3 -52 5 -55 31 -58 19 -2 27 1 27 12 0 9 -7 16 -15 16 -11 0 -15
12 -15 50 0 38 4 50 15 50 8 0 15 7 15 15 0 8 -7 15 -15 15 -8 0 -15 7 -15 15
0 8 -7 15 -15 15 -8 0 -15 -5 -15 -11z"/>
<path d="M777 5883 c-4 -3 -7 -39 -7 -80 0 -66 2 -73 20 -73 16 0 19 8 22 58
3 48 7 59 26 67 24 10 30 35 9 35 -7 0 -18 -5 -24 -11 -8 -8 -13 -8 -17 0 -8
12 -20 14 -29 4z"/>
<path d="M912 5883 c-16 -6 -42 -56 -42 -81 0 -35 38 -72 75 -72 39 0 75 28
54 41 -8 4 -19 3 -26 -2 -18 -15 -57 -7 -61 14 -3 14 4 17 47 17 46 0 51 2 51
23 0 28 -9 41 -37 56 -23 12 -39 13 -61 4z m56 -35 c20 -20 14 -28 -23 -28
-19 0 -35 4 -35 8 0 12 22 32 35 32 6 0 16 -5 23 -12z"/>
<path d="M1156 5869 c-52 -41 -24 -139 40 -139 33 0 64 17 64 35 0 18 -14 19
-39 3 -21 -13 -49 -5 -57 17 -17 44 35 97 61 62 8 -11 16 -13 26 -6 12 8 10
13 -10 29 -30 25 -52 25 -85 -1z"/>
<path d="M1540 5810 c0 -64 3 -80 15 -80 12 0 15 13 15 55 0 49 3 57 25 67 14
6 25 17 25 25 0 16 -5 16 -31 3 -13 -7 -19 -7 -19 0 0 5 -7 10 -15 10 -12 0
-15 -16 -15 -80z"/>
<path d="M1665 5868 c-33 -28 -37 -88 -9 -119 21 -23 72 -25 100 -4 16 12 17
16 4 24 -9 6 -19 6 -27 0 -18 -15 -57 -7 -61 14 -3 14 5 17 52 17 l55 0 -10
32 c-11 38 -17 45 -50 53 -19 5 -33 0 -54 -17z m63 -20 c20 -20 14 -28 -23
-28 -19 0 -35 4 -35 8 0 12 22 32 35 32 6 0 16 -5 23 -12z"/>
<path d="M1824 5865 c-34 -34 -30 -89 8 -118 23 -17 31 -19 53 -9 25 11 26 11
23 -10 -3 -21 -8 -23 -50 -21 -50 3 -62 -9 -29 -27 28 -14 63 -12 89 6 20 14
22 23 22 110 0 77 -3 94 -15 94 -8 0 -15 -5 -15 -10 0 -7 -6 -7 -19 0 -29 15
-39 13 -67 -15z m76 -24 c23 -44 1 -89 -38 -76 -27 8 -35 44 -16 72 18 28 40
29 54 4z"/>
<path d="M1987 5883 c-13 -13 -7 -109 9 -131 17 -24 53 -29 72 -10 9 9 12 9
12 0 0 -7 7 -12 15 -12 12 0 15 16 15 80 0 64 -3 80 -15 80 -11 0 -15 -12 -15
-49 0 -62 -7 -81 -31 -81 -25 0 -39 30 -39 84 0 43 -7 55 -23 39z"/>
<path d="M2243 5878 c-13 -6 -23 -17 -23 -25 0 -15 26 -18 35 -3 9 15 42 12
49 -5 4 -10 -3 -17 -22 -21 -70 -15 -84 -32 -62 -74 8 -16 21 -19 65 -18 l55
2 0 62 c0 54 -3 65 -22 78 -26 18 -44 19 -75 4z m67 -85 c-1 -27 -43 -48 -59
-29 -7 9 -7 16 1 24 13 13 58 16 58 5z"/>
<path d="M2380 5810 c0 -64 3 -80 15 -80 12 0 15 13 15 55 0 49 3 57 25 67 14
6 25 17 25 25 0 16 -5 16 -31 3 -13 -7 -19 -7 -19 0 0 5 -7 10 -15 10 -12 0
-15 -16 -15 -80z"/>
<path d="M2550 5886 c0 -2 14 -40 30 -83 l30 -78 -27 -22 c-23 -18 -24 -23
-11 -28 33 -13 55 14 92 111 20 53 34 99 32 102 -14 13 -34 -12 -51 -62 l-19
-56 -21 57 c-12 37 -26 59 -37 61 -10 2 -18 1 -18 -2z"/>
<path d="M2373 4720 c-13 -6 -23 -18 -23 -30 0 -11 -7 -20 -15 -20 -8 0 -15
-6 -15 -14 0 -8 7 -16 15 -20 11 -4 15 -21 15 -66 0 -47 3 -60 15 -60 12 0 15
14 15 65 0 51 3 65 15 65 8 0 15 7 15 15 0 8 -7 15 -15 15 -22 0 -18 17 5 30
11 6 18 15 15 21 -7 11 -13 11 -42 -1z"/>
<path d="M500 4616 c0 -88 3 -106 15 -106 10 0 15 11 15 35 0 33 2 35 34 35
46 0 79 29 79 69 0 45 -23 64 -87 69 l-56 4 0 -106z m91 64 c10 -6 19 -19 19
-29 0 -45 -72 -56 -78 -13 -7 48 16 64 59 42z"/>
<path d="M1200 4705 c0 -10 7 -15 18 -13 21 4 19 22 -2 26 -10 2 -16 -3 -16
-13z"/>
<path d="M1920 4705 c0 -10 7 -15 18 -13 21 4 19 22 -2 26 -10 2 -16 -3 -16
-13z"/>
<path d="M2260 4685 c0 -33 -1 -34 -25 -23 -53 24 -101 -49 -75 -112 14 -33
27 -39 88 -38 l42 1 0 103 c0 86 -3 104 -15 104 -10 0 -15 -11 -15 -35z m-12
-57 c14 -14 16 -57 3 -76 -4 -8 -19 -12 -32 -10 -19 2 -25 10 -27 36 -5 50 27
79 56 50z"/>
<path d="M2610 4615 c0 -87 3 -105 15 -105 12 0 15 18 15 105 0 87 -3 105 -15
105 -12 0 -15 -18 -15 -105z"/>
<path d="M1110 4685 c0 -8 -4 -15 -10 -15 -5 0 -10 -7 -10 -15 0 -8 5 -15 10
-15 6 0 10 -24 10 -53 0 -58 12 -77 47 -77 28 0 30 16 3 30 -25 13 -29 87 -5
96 8 4 15 12 15 20 0 8 -7 14 -15 14 -8 0 -15 7 -15 15 0 8 -7 15 -15 15 -8 0
-15 -7 -15 -15z"/>
<path d="M680 4590 c0 -64 3 -80 15 -80 12 0 15 13 15 55 0 49 3 57 25 67 14
6 25 17 25 25 0 16 -5 16 -31 3 -13 -7 -19 -7 -19 0 0 5 -7 10 -15 10 -12 0
-15 -16 -15 -80z"/>
<path d="M813 4660 c-13 -5 -23 -16 -23 -25 0 -18 14 -19 40 -3 15 9 22 10 31
1 15 -15 3 -33 -22 -33 -33 0 -59 -19 -59 -44 0 -34 19 -45 78 -44 l52 1 0 59
c0 83 -33 113 -97 88z m57 -99 c-16 -31 -60 -35 -60 -6 0 15 15 23 48 24 19 1
21 -2 12 -18z"/>
<path d="M966 4649 c-52 -41 -24 -139 40 -139 33 0 64 17 64 35 0 18 -14 19
-39 3 -21 -13 -49 -5 -57 17 -17 44 35 97 61 62 8 -11 16 -13 26 -6 12 8 10
13 -10 29 -30 25 -52 25 -85 -1z"/>
<path d="M1207 4663 c-4 -3 -7 -39 -7 -80 0 -58 3 -73 15 -73 12 0 15 16 15
80 0 73 -6 91 -23 73z"/>
<path d="M1295 4647 c-33 -27 -37 -87 -9 -118 30 -33 114 -17 114 22 0 12 -27
12 -35 -1 -10 -16 -52 -12 -59 6 -22 58 18 108 57 70 9 -9 18 -11 28 -5 11 8
10 13 -10 29 -30 26 -54 25 -86 -3z"/>
<path d="M1457 4650 c-34 -27 -38 -89 -7 -120 22 -22 79 -27 98 -8 21 21 13
29 -23 22 -22 -4 -41 -2 -50 6 -27 22 -16 30 41 30 l56 0 -7 28 c-13 56 -65
76 -108 42z m71 -32 c3 -15 -4 -18 -32 -18 -38 0 -44 8 -24 28 17 17 52 11 56
-10z"/>
<path d="M1677 4663 c-4 -3 -7 -39 -7 -80 0 -58 3 -73 15 -73 11 0 15 12 15
48 0 55 19 88 44 79 12 -5 16 -20 16 -67 0 -47 3 -60 15 -60 11 0 15 13 15 54
0 57 15 81 44 70 12 -5 16 -20 16 -65 0 -46 3 -59 15 -59 12 0 15 14 15 64 0
88 -27 116 -78 80 -12 -8 -22 -11 -22 -5 0 16 -38 23 -60 11 -13 -7 -20 -7
-20 0 0 11 -13 13 -23 3z"/>
<path d="M1927 4663 c-4 -3 -7 -39 -7 -80 0 -58 3 -73 15 -73 12 0 15 16 15
80 0 73 -6 91 -23 73z"/>
<path d="M1997 4663 c-4 -3 -7 -39 -7 -80 0 -55 3 -73 14 -73 9 0 15 17 18 55
5 64 20 85 46 69 12 -8 18 -27 20 -68 2 -41 7 -56 17 -56 12 0 15 15 15 65 0
58 -3 66 -25 81 -21 14 -31 15 -50 6 -15 -7 -25 -8 -25 -2 0 11 -13 13 -23 3z"/>
<path d="M2440 4606 c0 -45 5 -69 16 -80 18 -19 55 -21 72 -4 9 9 12 9 12 0 0
-7 7 -12 15 -12 12 0 15 16 15 80 0 64 -3 80 -15 80 -11 0 -15 -12 -15 -46 0
-54 -14 -84 -39 -84 -24 0 -31 19 -31 81 0 37 -4 49 -15 49 -12 0 -15 -14 -15
-64z"/>
<path d="M2680 4590 c0 -64 3 -80 15 -80 11 0 15 13 15 54 0 60 19 88 48 69
12 -7 18 -27 20 -67 2 -41 7 -56 17 -56 25 0 20 115 -5 140 -23 23 -33 24 -61
10 -13 -7 -19 -7 -19 0 0 5 -7 10 -15 10 -12 0 -15 -16 -15 -80z"/>
<path d="M2865 4645 c-33 -32 -34 -83 -2 -113 29 -28 78 -29 102 -2 18 20 18
20 -30 18 -40 -3 -50 0 -53 15 -3 14 4 17 47 17 45 0 51 3 51 20 0 27 -43 70
-70 70 -11 0 -32 -11 -45 -25z m73 -27 c3 -14 -3 -18 -27 -18 -29 0 -41 17
-24 34 13 13 48 1 51 -16z"/>
<path d="M3020 4530 c0 -11 7 -20 15 -20 8 0 15 9 15 20 0 11 -7 20 -15 20 -8
0 -15 -9 -15 -20z"/>
<path d="M3104 4539 c-10 -17 13 -36 27 -22 12 12 4 33 -11 33 -5 0 -12 -5
-16 -11z"/>
<path d="M3190 4530 c0 -11 7 -20 15 -20 8 0 15 9 15 20 0 11 -7 20 -15 20 -8
0 -15 -9 -15 -20z"/>
<path d="M500 3395 l0 -105 65 0 c51 0 65 3 65 15 0 11 -12 15 -50 15 l-50 0
0 90 c0 73 -3 90 -15 90 -12 0 -15 -18 -15 -105z"/>
<path d="M657 3494 c-9 -10 2 -24 19 -24 8 0 14 7 14 15 0 15 -21 21 -33 9z"/>
<path d="M977 3494 c-9 -10 2 -24 19 -24 8 0 14 7 14 15 0 15 -21 21 -33 9z"/>
<path d="M2300 3485 c0 -10 7 -15 18 -13 21 4 19 22 -2 26 -10 2 -16 -3 -16
-13z"/>
<path d="M1050 3465 c0 -8 -4 -15 -10 -15 -5 0 -10 -7 -10 -15 0 -8 5 -15 10
-15 6 0 10 -24 10 -53 0 -58 12 -77 47 -77 28 0 30 16 3 30 -25 13 -29 87 -5
96 8 4 15 12 15 20 0 8 -7 14 -15 14 -8 0 -15 7 -15 15 0 8 -7 15 -15 15 -8 0
-15 -7 -15 -15z"/>
<path d="M2210 3465 c0 -8 -4 -15 -10 -15 -5 0 -10 -7 -10 -15 0 -8 5 -15 10
-15 6 0 10 -24 10 -53 0 -58 12 -77 47 -77 16 0 21 4 17 15 -4 8 -12 15 -20
15 -10 0 -14 14 -14 50 0 38 4 50 15 50 8 0 15 7 15 15 0 8 -7 15 -15 15 -8 0
-15 7 -15 15 0 8 -7 15 -15 15 -8 0 -15 -7 -15 -15z"/>
<path d="M660 3370 c0 -64 3 -80 15 -80 12 0 15 16 15 80 0 64 -3 80 -15 80
-12 0 -15 -16 -15 -80z"/>
<path d="M730 3370 c0 -64 3 -80 15 -80 11 0 15 13 15 54 0 61 19 88 45 66 10
-8 15 -31 15 -66 0 -41 4 -54 15 -54 11 0 15 13 15 54 0 35 5 58 15 66 26 22
45 -5 45 -66 0 -41 4 -54 15 -54 12 0 15 14 15 65 0 57 -3 66 -25 81 -25 16
-65 11 -65 -8 0 -6 -9 -3 -20 7 -17 15 -24 16 -45 7 -15 -7 -25 -8 -25 -2 0 6
-7 10 -15 10 -12 0 -15 -16 -15 -80z"/>
<path d="M980 3370 c0 -64 3 -80 15 -80 12 0 15 16 15 80 0 64 -3 80 -15 80
-12 0 -15 -16 -15 -80z"/>
<path d="M1243 3440 c-17 -7 -23 -18 -23 -39 0 -27 5 -32 40 -42 22 -7 40 -18
40 -26 0 -15 -41 -18 -56 -3 -5 5 -15 6 -22 1 -22 -13 14 -41 53 -41 26 0 39
6 51 25 16 24 15 27 0 44 -9 10 -30 21 -47 25 -16 3 -29 10 -29 16 0 17 29 23
46 10 11 -10 18 -10 26 -2 24 24 -38 49 -79 32z"/>
<path d="M1385 3425 c-33 -32 -34 -83 -2 -113 31 -29 81 -29 102 1 14 20 14
22 -2 26 -9 2 -19 -2 -21 -8 -2 -6 -15 -11 -28 -11 -36 0 -52 41 -30 75 19 28
38 32 56 11 14 -17 41 -10 34 8 -6 15 -47 36 -70 36 -8 0 -26 -11 -39 -25z"/>
<path d="M1530 3370 c0 -64 3 -80 15 -80 12 0 15 13 15 55 0 49 3 57 25 67 14
6 25 17 25 25 0 16 -5 16 -31 3 -13 -7 -19 -7 -19 0 0 5 -7 10 -15 10 -12 0
-15 -16 -15 -80z"/>
<path d="M1655 3428 c-33 -28 -37 -88 -9 -119 21 -23 72 -25 100 -4 16 12 17
16 4 24 -9 6 -19 6 -27 0 -18 -15 -57 -7 -61 14 -3 14 5 17 52 17 l55 0 -10
32 c-11 38 -17 45 -50 53 -19 5 -33 0 -54 -17z m63 -20 c20 -20 14 -28 -23
-28 -19 0 -35 4 -35 8 0 12 22 32 35 32 6 0 16 -5 23 -12z"/>
<path d="M1815 3425 c-33 -32 -34 -83 -2 -113 29 -28 78 -29 102 -2 18 20 18
20 -30 18 -40 -3 -50 0 -53 15 -3 14 4 17 47 17 45 0 51 3 51 20 0 27 -43 70
-70 70 -11 0 -32 -11 -45 -25z m73 -27 c3 -14 -3 -18 -27 -18 -29 0 -41 17
-24 34 13 13 48 1 51 -16z"/>
<path d="M1967 3443 c-4 -3 -7 -39 -7 -80 0 -55 3 -73 14 -73 9 0 15 17 18 55
5 64 20 85 46 69 12 -8 18 -27 20 -68 2 -41 7 -56 17 -56 12 0 15 15 15 65 0
58 -3 66 -25 81 -21 14 -31 15 -50 6 -15 -7 -25 -8 -25 -2 0 11 -13 13 -23 3z"/>
<path d="M2300 3370 c0 -64 3 -80 15 -80 12 0 15 16 15 80 0 64 -3 80 -15 80
-12 0 -15 -16 -15 -80z"/>
<path d="M2370 3370 c0 -64 3 -80 15 -80 11 0 15 13 15 54 0 61 19 88 45 66
10 -8 15 -31 15 -66 0 -41 4 -54 15 -54 11 0 15 13 15 54 0 35 5 58 15 66 26
22 45 -5 45 -66 0 -41 4 -54 15 -54 12 0 15 14 15 65 0 57 -3 66 -25 81 -25
16 -65 11 -65 -8 0 -6 -9 -3 -20 7 -17 15 -24 16 -45 7 -15 -7 -25 -8 -25 -2
0 6 -7 10 -15 10 -12 0 -15 -16 -15 -80z"/>
<path d="M2652 3443 c-16 -6 -42 -56 -42 -81 0 -35 38 -72 75 -72 39 0 75 28
54 41 -8 4 -19 3 -26 -2 -18 -15 -57 -7 -61 14 -3 14 4 17 47 17 46 0 51 2 51
23 0 28 -9 41 -37 56 -23 12 -39 13 -61 4z m56 -35 c20 -20 14 -28 -23 -28
-19 0 -35 4 -35 8 0 12 22 32 35 32 6 0 16 -5 23 -12z"/>
<path d="M500 2175 l0 -105 65 0 c50 0 65 3 65 14 0 11 -14 16 -47 18 -44 3
-48 5 -48 28 0 23 4 25 48 28 63 4 58 26 -7 30 -45 3 -47 5 -44 30 3 25 7 27
51 30 33 2 47 7 47 18 0 11 -15 14 -65 14 l-65 0 0 -105z"/>
<path d="M1000 2177 l0 -104 47 -1 c62 0 81 11 89 52 8 45 -2 73 -32 93 -20
13 -30 14 -49 5 -24 -11 -25 -10 -25 23 0 24 -5 35 -15 35 -12 0 -15 -18 -15
-103z m88 11 c18 -18 15 -77 -4 -85 -24 -9 -49 10 -52 41 -6 45 29 71 56 44z"/>
<path d="M1330 2175 c0 -87 3 -105 15 -105 12 0 15 18 15 105 0 87 -3 105 -15
105 -12 0 -15 -18 -15 -105z"/>
<path d="M2160 2245 c0 -32 -2 -35 -19 -25 -29 15 -39 13 -66 -15 -46 -45 -24
-135 34 -135 15 0 32 5 39 12 9 9 12 9 12 0 0 -7 7 -12 15 -12 12 0 15 18 15
105 0 87 -3 105 -15 105 -11 0 -15 -11 -15 -35z m-16 -61 c9 -8 16 -25 16 -38
0 -47 -53 -63 -72 -21 -9 19 -8 29 6 50 19 29 29 31 50 9z"/>
<path d="M2880 2175 c0 -87 3 -105 15 -105 12 0 15 18 15 105 0 87 -3 105 -15
105 -12 0 -15 -18 -15 -105z"/>
<path d="M830 2245 c0 -8 -4 -15 -10 -15 -5 0 -10 -7 -10 -15 0 -8 5 -15 10
-15 6 0 10 -24 10 -53 0 -58 12 -77 47 -77 28 0 30 16 3 30 -25 13 -29 87 -5
96 8 4 15 12 15 20 0 8 -7 14 -15 14 -8 0 -15 7 -15 15 0 8 -7 15 -15 15 -8 0
-15 -7 -15 -15z"/>
<path d="M693 2218 c-13 -6 -23 -17 -23 -25 0 -15 26 -18 35 -3 9 15 42 12 49
-5 4 -10 -3 -17 -22 -21 -70 -15 -84 -32 -62 -74 8 -16 21 -19 65 -18 l55 2 0
62 c0 54 -3 65 -22 78 -26 18 -44 19 -75 4z m67 -85 c-1 -28 -44 -48 -60 -28
-8 10 -7 16 7 24 21 12 53 14 53 4z"/>
<path d="M1189 2211 c-29 -24 -18 -39 15 -21 27 14 60 7 54 -13 -3 -6 -13 -13
-24 -15 -50 -7 -63 -13 -69 -32 -3 -10 -1 -28 5 -40 9 -16 20 -20 65 -19 l55
2 0 63 c0 54 -3 65 -22 78 -30 21 -51 20 -79 -3z m71 -86 c0 -17 -29 -34 -47
-28 -31 11 -10 40 30 42 9 1 17 -6 17 -14z"/>
<path d="M1419 2211 c-29 -24 -18 -39 15 -21 27 14 60 7 54 -13 -3 -6 -13 -13
-24 -15 -50 -7 -63 -13 -69 -32 -3 -10 -1 -28 5 -40 9 -16 20 -20 65 -19 l55
2 0 63 c0 54 -3 65 -22 78 -30 21 -51 20 -79 -3z m71 -86 c0 -17 -29 -34 -47
-28 -31 11 -10 40 30 42 9 1 17 -6 17 -14z"/>
<path d="M1567 2223 c-4 -3 -7 -39 -7 -80 0 -55 3 -73 14 -73 9 0 15 17 18 55
5 64 20 85 46 69 12 -8 18 -27 20 -68 2 -41 7 -56 17 -56 12 0 15 15 15 65 0
58 -3 66 -25 81 -21 14 -31 15 -50 6 -15 -7 -25 -8 -25 -2 0 11 -13 13 -23 3z"/>
<path d="M1752 2213 c-56 -45 -27 -143 42 -143 20 0 40 8 51 20 23 25 12 37
-19 21 -41 -22 -61 -11 -61 33 0 48 24 69 52 44 24 -22 49 -9 30 15 -19 26
-69 32 -95 10z"/>
<path d="M1915 2208 c-33 -28 -37 -88 -9 -119 21 -23 72 -25 100 -4 16 12 17
16 4 24 -9 6 -19 6 -27 0 -18 -15 -57 -7 -61 14 -3 14 5 17 52 17 l55 0 -10
32 c-11 38 -17 45 -50 53 -19 5 -33 0 -54 -17z m63 -20 c20 -20 14 -28 -23
-28 -19 0 -35 4 -35 8 0 12 22 32 35 32 6 0 16 -5 23 -12z"/>
<path d="M2307 2223 c-4 -3 -7 -39 -7 -80 0 -66 2 -73 20 -73 16 0 19 8 22 63
3 54 5 62 23 62 18 0 20 -8 23 -62 3 -54 6 -63 22 -63 16 0 19 9 22 63 3 54 5
62 23 62 18 0 20 -8 23 -62 2 -47 7 -63 17 -63 12 0 15 15 15 70 0 65 -2 71
-25 82 -19 9 -29 8 -50 -6 -14 -9 -25 -12 -25 -7 0 15 -40 24 -55 11 -9 -7
-15 -8 -20 0 -7 12 -19 13 -28 3z"/>
<path d="M2575 2208 c-33 -28 -37 -88 -9 -119 21 -23 72 -25 100 -4 16 12 17
16 4 24 -9 6 -19 6 -27 0 -18 -15 -57 -7 -61 14 -3 14 5 17 52 17 l55 0 -10
32 c-11 38 -17 45 -50 53 -19 5 -33 0 -54 -17z m63 -20 c20 -20 14 -28 -23
-28 -19 0 -35 4 -35 8 0 12 22 32 35 32 6 0 16 -5 23 -12z"/>
<path d="M2743 2218 c-13 -6 -23 -17 -23 -25 0 -15 26 -18 35 -3 9 15 42 12
49 -5 4 -10 -3 -17 -22 -21 -70 -15 -84 -32 -62 -74 8 -16 21 -19 65 -18 l55
2 0 62 c0 54 -3 65 -22 78 -26 18 -44 19 -75 4z m67 -85 c-1 -28 -44 -48 -60
-28 -8 10 -7 16 7 24 21 12 53 14 53 4z"/>
<path d="M2973 2218 c-25 -12 -31 -49 -10 -66 6 -6 24 -13 40 -17 34 -9 36
-35 3 -35 -14 0 -27 4 -31 10 -3 5 -12 7 -21 3 -26 -10 14 -43 52 -43 76 0 87
70 13 90 -21 6 -39 15 -39 21 0 15 30 23 43 10 16 -16 37 -14 37 4 0 9 -12 20
-26 25 -30 12 -33 12 -61 -2z"/>
<path d="M3105 2100 c-8 -14 3 -30 21 -30 8 0 14 9 14 20 0 21 -24 28 -35 10z"/>
<path d="M3190 2090 c0 -15 5 -20 18 -18 9 2 17 10 17 18 0 8 -8 16 -17 18
-13 2 -18 -3 -18 -18z"/>
<path d="M3275 2100 c-8 -14 3 -30 21 -30 8 0 14 9 14 20 0 21 -24 28 -35 10z"/>
<path d="M500 955 l0 -105 65 0 c51 0 65 3 65 15 0 11 -12 15 -51 15 -49 0
-50 1 -47 28 3 24 7 27 46 30 28 2 42 8 42 18 0 10 -13 14 -46 14 -44 0 -45 1
-42 28 3 25 7 27 51 30 33 2 47 7 47 18 0 11 -15 14 -65 14 l-65 0 0 -105z"/>
<path d="M1247 1054 c-9 -10 2 -24 19 -24 8 0 14 7 14 15 0 15 -21 21 -33 9z"/>
<path d="M1810 1025 c0 -32 -2 -35 -19 -25 -29 15 -39 13 -66 -15 -46 -45 -24
-135 34 -135 15 0 32 5 39 12 9 9 12 9 12 0 0 -7 7 -12 15 -12 12 0 15 18 15
105 0 87 -3 105 -15 105 -11 0 -15 -11 -15 -35z m-16 -61 c9 -8 16 -25 16 -38
0 -47 -53 -63 -72 -21 -9 19 -8 29 6 50 19 29 29 31 50 9z"/>
<path d="M2040 1045 c0 -10 7 -15 18 -13 21 4 19 22 -2 26 -10 2 -16 -3 -16
-13z"/>
<path d="M2110 955 c0 -87 3 -105 15 -105 12 0 15 18 15 105 0 87 -3 105 -15
105 -12 0 -15 -18 -15 -105z"/>
<path d="M679 974 c26 -43 26 -52 1 -84 -25 -31 -25 -40 -2 -40 11 0 24 11 30
25 6 14 15 25 20 25 5 0 14 -11 20 -25 7 -15 20 -25 32 -25 19 0 19 2 -6 40
l-26 39 21 30 c12 16 21 34 21 40 0 20 -29 12 -41 -11 -17 -33 -17 -33 -40 -5
-11 15 -27 27 -36 27 -12 0 -11 -6 6 -36z"/>
<path d="M852 1003 c-16 -6 -42 -56 -42 -81 0 -35 38 -72 75 -72 39 0 75 28
54 41 -8 4 -19 3 -26 -2 -18 -15 -57 -7 -61 14 -3 14 4 17 47 17 46 0 51 2 51
23 0 28 -9 41 -37 56 -23 12 -39 13 -61 4z m56 -35 c20 -20 14 -28 -23 -28
-19 0 -35 4 -35 8 0 12 22 32 35 32 6 0 16 -5 23 -12z"/>
<path d="M987 1003 c-4 -3 -7 -39 -7 -80 0 -58 3 -73 15 -73 11 0 15 12 15 49
0 51 17 81 46 81 8 0 14 4 14 9 0 17 -19 22 -40 11 -13 -7 -20 -7 -20 0 0 11
-13 13 -23 3z"/>
<path d="M1106 989 c-52 -41 -24 -139 40 -139 33 0 64 17 64 35 0 18 -14 19
-39 3 -21 -13 -49 -5 -57 17 -17 44 35 97 61 62 8 -11 16 -13 26 -6 12 8 10
13 -10 29 -30 25 -52 25 -85 -1z"/>
<path d="M1250 930 c0 -64 3 -80 15 -80 12 0 15 16 15 80 0 64 -3 80 -15 80
-12 0 -15 -16 -15 -80z"/>
<path d="M1343 1000 c-17 -7 -23 -18 -23 -39 0 -27 5 -32 40 -42 22 -7 40 -18
40 -26 0 -15 -41 -18 -56 -3 -5 5 -15 6 -22 1 -22 -13 14 -41 53 -41 26 0 39
6 51 25 16 24 15 27 0 44 -9 10 -30 21 -47 25 -16 3 -29 10 -29 16 0 17 29 23
46 10 11 -10 18 -10 26 -2 24 24 -38 49 -79 32z"/>
<path d="M1502 1003 c-16 -6 -42 -56 -42 -81 0 -35 38 -72 75 -72 39 0 75 28
54 41 -8 4 -19 3 -26 -2 -18 -15 -57 -7 -61 14 -3 14 4 17 47 17 46 0 51 2 51
23 0 28 -9 41 -37 56 -23 12 -39 13 -61 4z m56 -35 c20 -20 14 -28 -23 -28
-19 0 -35 4 -35 8 0 12 22 32 35 32 6 0 16 -5 23 -12z"/>
<path d="M1901 994 c-29 -20 -13 -42 16 -23 23 14 57 5 51 -14 -3 -6 -18 -13
-35 -15 -45 -4 -69 -35 -55 -67 10 -22 17 -25 67 -24 l55 2 0 63 c0 54 -3 65
-22 78 -29 20 -48 20 -77 0z m69 -89 c0 -17 -36 -39 -50 -30 -14 9 -12 32 3
38 24 10 47 7 47 -8z"/>
<path d="M2040 930 c0 -64 3 -80 15 -80 12 0 15 16 15 80 0 64 -3 80 -15 80
-12 0 -15 -16 -15 -80z"/>
<path d="M2170 1003 c0 -5 11 -38 25 -73 30 -77 31 -100 5 -107 -26 -7 -26
-33 -1 -33 30 0 47 23 81 112 34 91 36 103 18 103 -7 0 -22 -27 -34 -59 l-21
-60 -20 60 c-12 36 -26 60 -36 62 -9 2 -17 -1 -17 -5z"/>
</g>
</svg>
